<?xml version="1.0" encoding="UTF-8"?>
<!DOCTYPE svg PUBLIC "-//W3C//DTD SVG 1.1//EN" "http://www.w3.org/Graphics/SVG/1.1/DTD/svg11.dtd">
<!-- Creator: CorelDRAW 2021 (64-Bit) -->
<svg xmlns="http://www.w3.org/2000/svg" xml:space="preserve" width="4000px" height="1248px" version="1.1" style="shape-rendering:geometricPrecision; text-rendering:geometricPrecision; image-rendering:optimizeQuality; fill-rule:evenodd; clip-rule:evenodd"
viewBox="0 0 477.95 149.14"
 xmlns:xlink="http://www.w3.org/1999/xlink"
 xmlns:xodm="http://www.corel.com/coreldraw/odm/2003">
 <defs>
  <style type="text/css">
   <![CDATA[
    .fil0 {fill:#2C3CCC}
    .fil1 {fill:#FC6604}
   ]]>
  </style>
 </defs>
 <g id="Layer_x0020_1">
  <metadata id="CorelCorpID_0Corel-Layer"/>
  <g id="_1536923840176">
   <path class="fil0" d="M88.27 50.29c1.98,-1.42 4.43,-4.94 5.66,-5.79 2.84,2.62 5.52,7.07 7.59,11.52 6.96,14.94 3.75,33.36 -5.84,44.9 -3.18,3.82 -5.42,6.24 -9.84,9.17 -9.3,6.16 -19.98,8.45 -31.34,6.77 -6.57,-0.97 -9.3,-2.91 -14.74,-5.05l3.41 14.54 -14.47 -0.81c5.04,3.43 11.58,6.65 18.33,7.99l-0.01 15.61 10.18 -0.01 0.02 -13.99 7.86 0.13 0.05 13.82 10.18 0.05 0.02 -15.49c33.26,-6.43 54.97,-42.71 45.69,-75.95 -2.33,-8.35 -6.9,-17.76 -12.64,-23.95 -0.99,-1.07 -1.75,-2.01 -2.43,-3.07l3.9 -4.74c0.73,-0.96 -0.1,0.53 0.74,-1.1l-28.32 -2.29 6 27.74z"/>
   <path class="fil1" d="M46.98 13.71c-10.47,4.1 -16.32,4.93 -25.92,13.6 -16.32,14.74 -24.21,35.15 -19.89,58.48 1.43,7.74 4.65,15.14 8.6,21.31 1.45,2.28 3.03,4.05 4.12,5.96l-5.05 5.51 28.03 4.01 -4.34 -27.63c-3.05,1.27 -3.5,3.98 -6.05,4.74 -16.4,-19.28 -9.79,-57.2 21.49,-67.6 12.51,-4.15 20,-1.83 31.23,1.36l-3.65 -13.88 14.31 -0.02 -14.37 -5.87 -0.2 -13.66 -9.96 -0.02 -0.28 12.08 -7.73 0.09 -0.15 -12.08 -9.9 -0.08 -0.29 13.7z"/>
   <path class="fil0" d="M57.6 43.4c-4.25,1.4 -6.09,1.22 -10.29,3.45 -22.12,11.75 -21,42.41 -0.39,53.52 4.17,2.26 6.21,2.21 10.69,3.62l-0.06 9.55 7.35 -0.15 -0.15 -9.41c9.08,-2.14 15.2,-4.35 20.58,-11.39 1.51,-1.98 3.3,-4.51 3.98,-7.06 -16.62,-0.11 -10.17,-0.93 -16.71,3.62 -9.66,6.74 -22.34,3.77 -28,-6.53 -9.86,-17.97 13.68,-37.83 30.01,-22.83 2.64,2.42 0.88,2.15 5.91,2.09 2.87,-0.04 5.81,-0.05 8.68,0.02 -0.39,-4.25 -6.91,-10.55 -9.16,-12.2 -5.78,-4.24 -7.55,-4.26 -15.22,-6.34l-0.03 -7.22 -7.24 0.05 0.05 7.21z"/>
  </g>
  <g id="_1536923773648">
   <path class="fil0" d="M174.72 52.03l0 13.93c-6.19,-3.69 -11.61,-5.54 -16.27,-5.54 -4.64,0 -8.36,1.59 -11.16,4.79 -2.79,3.2 -4.18,7.51 -4.18,12.91 0,5.1 1.47,9.2 4.4,12.26 2.93,3.07 6.86,4.6 11.78,4.6 4.3,0 9.45,-1.76 15.43,-5.27l0 13.93c-6.71,2.27 -12.31,3.4 -16.79,3.4 -7.69,0 -14.24,-2.83 -19.62,-8.49 -5.37,-5.65 -8.06,-12.56 -8.06,-20.7 0,-8.29 2.74,-15.3 8.21,-21.05 5.48,-5.74 12.15,-8.61 19.99,-8.61 5.06,0 10.48,1.28 16.27,3.84zm9.11 -3.04l12.32 0 0 22.06 20.36 0 0 -22.06 12.33 0 0 57.24 -12.33 0 0 -22.77 -20.36 0 0 22.77 -12.32 0 0 -57.24zm76.7 0l9.64 0 23.31 57.24 -12.41 0 -4.59 -11.25 -21.97 0 -4.49 11.25 -12.36 0 22.87 -57.24zm4.86 18.75l-6.74 16.88 13.62 0 -6.88 -16.88zm40.83 -18.75l14.69 0 10.75 34.29 10.76 -34.29 14.15 0 7.28 57.24 -11.71 0 -5.03 -40.27 -12.64 40.27 -5.61 0 -12.92 -40.63 -4.79 40.63 -11.96 0 7.03 -57.24zm66.47 0l16.7 0c6.97,0 11.73,1.46 14.29,4.36 2.56,2.92 3.84,6.33 3.84,10.23 0,2.47 -0.46,4.57 -1.4,6.26 -0.92,1.71 -2.43,3.44 -4.5,5.18 3.98,1.37 6.78,3.38 8.43,6.03 1.65,2.65 2.47,5.49 2.47,8.51 0,5.26 -1.8,9.35 -5.4,12.28 -3.62,2.93 -8.7,4.39 -15.23,4.39l-19.2 0 0 -57.24zm12.32 9.56l0 12.59 2.85 0c2.1,0 3.85,-0.67 5.28,-2 1.43,-1.34 2.14,-2.97 2.14,-4.94 0,-1.58 -0.7,-2.92 -2.09,-4 -1.4,-1.1 -3.14,-1.65 -5.24,-1.65l-2.94 0zm0 22.32l0 15.81 4.45 0c6.81,0 10.2,-2.49 10.2,-7.44 0,-2.7 -0.83,-4.75 -2.49,-6.2 -1.65,-1.44 -4.01,-2.17 -7.09,-2.17l-5.07 0zm46.87 -26.27l0 51.63 -12.32 0 0 -50.97c1.43,1.66 3.55,2.71 5.91,2.71 2.66,0 5.01,-1.34 6.41,-3.37zm7.58 -5.61l38.49 0 0 12.15 -13.13 0 0 45.09 -12.32 0 0 -45.09 -13.04 0 0 -12.15z"/>
   <circle class="fil1" cx="425.47" cy="48.75" r="6.64"/>
  </g>
 </g>
</svg>
